<?xml version="1.0" encoding="UTF-8" standalone="no"?>
<svg
   xmlns:dc="http://purl.org/dc/elements/1.1/"
   xmlns:cc="http://creativecommons.org/ns#"
   xmlns:rdf="http://www.w3.org/1999/02/22-rdf-syntax-ns#"
   xmlns:svg="http://www.w3.org/2000/svg"
   xmlns="http://www.w3.org/2000/svg"
   xmlns:sodipodi="http://sodipodi.sourceforge.net/DTD/sodipodi-0.dtd"
   xmlns:inkscape="http://www.inkscape.org/namespaces/inkscape"
   id="svg2"
   height="2352pt"
   width="2987pt"
   version="1.1"
   viewBox="0 0 2987 2352"
   sodipodi:docname="piggy.svg"
   inkscape:version="0.92.1 r15371">
  <metadata
     id="metadata4495">
    <rdf:RDF>
      <cc:Work
         rdf:about="">
        <dc:format>image/svg+xml</dc:format>
        <dc:type
           rdf:resource="http://purl.org/dc/dcmitype/StillImage" />
        <dc:title></dc:title>
      </cc:Work>
    </rdf:RDF>
  </metadata>
  <defs
     id="defs4493" />
  <sodipodi:namedview
     pagecolor="#ffffff"
     bordercolor="#666666"
     borderopacity="1"
     objecttolerance="10"
     gridtolerance="10"
     guidetolerance="10"
     inkscape:pageopacity="0"
     inkscape:pageshadow="2"
     inkscape:window-width="1920"
     inkscape:window-height="986"
     id="namedview4491"
     showgrid="false"
     inkscape:zoom="0.24330357"
     inkscape:cx="1991.3333"
     inkscape:cy="1568"
     inkscape:window-x="-11"
     inkscape:window-y="-11"
     inkscape:window-maximized="1"
     inkscape:current-layer="g4153" />
  <g
     id="g4153">
    <path
       id="path4144"
       d="m 2400.0356,11.4624 c 39.032,-0.1368 78.072,5.544 115.488,17.4968 -57.744,83.872 -83.752,190.128 -66.792,290.736 125.88,94.912 233.952,215.096 307.088,355.328 40.904,-4.512 85.072,-5.304 122.704,13.952 51.0776,23.832 86.808,76.16 91.936,132.144 0.092,168.24 -0.038,336.56 0.073,504.8 -1.2904,85.2 -79.9208,159.52 -165,156.08 -20.76,2.08 -41.96,-2.4 -62.08,-3.36 -36.688,64.24 -79.256,125.68 -129.072,180.32 -130.04,146.48 -299.568,254.72 -481.248,325.76 4.56,51.52 2.32,105.84 1.36,158.32 -8.24,99.28 -92.8,185.04 -191.84,195.04 -106,13.84 -212.64,-63.2 -235.12,-167.12 -7.76,-29.36 -5.76,-59.92 -6.16,-89.92 -98.56,7.04 -197.52,3.6 -295.84,-6 -0.8,27.44 1.92,55.12 -2.64,82.32 -14.32,92 -93.44,168.72 -185.84,180.16 -81.6,11.52 -166.64,-29.12 -210.48,-98.56 -23.91999,-36.56 -35.51999,-80.48 -35.11999,-123.92 0.72,-51.52 -3.28,-103.92 7.84,-154.56 -196.96,-87.6 -377.28,-221.92 -500.64,-400.64 -121.28,-172.24 -180.32,-388.96 -153.12,-598.72 -64,4.4 -131.28,-6.16 -186,-41.12 -42.96,-26.56 -75.44,-67.84 -95.12,-113.92 -22.48,-54.744 -34.8000005,-115.392 -25.12,-174.328 6.96,-44.328 28.4,-86.912 62.24,-116.704 58.56,-52.92 151.04,-70.888 222.16,-33.216 47.52,24.304 71.36,83.24 57.84,134.128 -5.84,7.056 -12.4,16.68 -20.64,19.864 -13.2,-19.864 -22.72,-43.16 -42.16,-58.08 -19.76,-16.816 -45.92,-31.552 -72.8,-25.512 -21.12,5.64 -35.92,23.928 -43.6,43.568 -16.32,43.064 -13.6,94.76 11.2,134.152 18.72,31.504 57.52,47.456 93.2,42.28 36.56,-3.416 70.48,-19.68 101.28,-38.704 47.28,-108.488 115.84,-210.168 198.56,-293.096 137.2,-142.912 313.04,-246.632 499.83999,-311.536 324.24,-111.696 685.92,-109.928 1009.44,3.696 4.8,0.608 9.84,5.704 14.8,3.784 73.6,-79.6904 181.472,-124.536 289.384,-124.912 z"
       inkscape:connector-curvature="0"
       style="fill:#ffaaaa;stroke-width:0.80000001" />
    <path
       id="path10"
       d="m 2318.9283,438.83872 c 38.2406,-2.93 60.1521,17.11 72.7805,31.17 39.4741,50.82 41.9622,107.07 23.3959,160.09 -11.2484,24.11 -23.835,51.11 -66.2363,67.36 -28.7275,8.96 -60.9048,-3.47 -73.7004,-15.71 -41.1259,-34.55 -45.2448,-75.59 -49.7818,-114.31 2.9899,-34.28 9.5968,-69.52 39.5369,-101.18 11.7712,-11.16 26.5531,-24.17 54.0052,-27.42 z"
       inkscape:connector-curvature="0"
       style="fill:#ff6666;stroke-width:1.44595718" />
  </g>
</svg>
